<?xml version="1.0" encoding="utf-8"?>
<!-- Generator: Adobe Illustrator 25.2.0, SVG Export Plug-In . SVG Version: 6.00 Build 0)  -->
<svg version="1.1" id="Layer_1" xmlns="http://www.w3.org/2000/svg" xmlns:xlink="http://www.w3.org/1999/xlink" x="0px" y="0px"
	 viewBox="0 0 391 194" style="enable-background:new 0 0 391 194;" xml:space="preserve">
<style type="text/css">
	.st0{fill:url(#SVGID_1_);}
	.st1{fill:url(#SVGID_2_);}
	.st2{fill:url(#SVGID_3_);}
	.st3{fill:url(#SVGID_4_);}
	.st4{fill:none;}
	.st5{fill:url(#SVGID_5_);}
	.st6{fill:url(#SVGID_6_);}
	.st7{fill:url(#SVGID_7_);}
	.st8{fill:url(#SVGID_8_);}
</style>
<g>
	<linearGradient id="SVGID_1_" gradientUnits="userSpaceOnUse" x1="19.271" y1="120.0441" x2="148.4189" y2="120.0441">
		<stop  offset="0.0123" style="stop-color:#4ECAE0"/>
		<stop  offset="1" style="stop-color:#6EA5E0"/>
	</linearGradient>
	<path class="st0" d="M144,97.77c-2.96-6.85-7.05-12.83-12.17-17.98c-5.15-5.15-11.17-9.21-17.98-12.17
		C107,64.66,99.62,63.2,91.68,63.2H57.14l0-0.02H19.27c0,0,1.85,7.07,7.35,13.02c4.09,4.43,10.48,7.54,13.49,8.84
		c0.32,0.14,0.71,0.31,1.13,0.46c0.38,0.15,0.62,0.24,0.62,0.24h0.27c1.8,0.15,15.13,0.15,15.14,0.17l0-0.17h34.42
		c4.72,0,9.17,0.9,13.3,2.66c4.12,1.76,7.78,4.22,10.9,7.35c3.09,3.12,5.55,6.75,7.35,10.9c1.76,4.12,2.66,8.54,2.66,13.3
		c0,4.72-0.9,9.21-2.66,13.43c-1.79,4.22-4.25,7.88-7.35,11c-3.12,3.16-6.78,5.58-10.9,7.35c-4.12,1.76-8.58,2.66-13.3,2.66
		c-4.72,0-9.21-0.9-13.43-2.66c-4.22-1.76-7.88-4.19-11-7.35c-3.12-3.12-5.58-6.78-7.35-11c-1.8-4.22-2.66-8.71-2.66-13.43
		l-0.03-0.03v-17.65c0,0-7.18,1.46-14.49,7.88c-6.32,5.55-8.04,9.81-8.04,9.81c0,7.78,1.5,15.09,4.45,22.04
		c2.96,6.91,7.05,13,12.27,18.25c5.25,5.22,11.33,9.31,18.25,12.27c6.91,2.96,14.26,4.42,22.04,4.42c7.94,0,15.32-1.46,22.17-4.42
		c6.81-2.96,12.83-7.05,17.98-12.27c5.12-5.25,9.21-11.33,12.17-18.25c2.93-6.95,4.42-14.26,4.42-22.04
		C148.42,112,146.92,104.62,144,97.77z"/>
	
		<linearGradient id="SVGID_2_" gradientUnits="userSpaceOnUse" x1="-1003.518" y1="-759.3762" x2="-889.7882" y2="-759.3762" gradientTransform="matrix(0 1 -1 0 -421.8477 1066.2091)">
		<stop  offset="0.0123" style="stop-color:#4ECAE0"/>
		<stop  offset="1" style="stop-color:#6EA5E0"/>
	</linearGradient>
	<path class="st1" d="M360.32,62.69c-7.77,0-15.11,1.48-22.04,4.42c-6.93,2.97-13.01,7.01-18.24,12.16
		c-5.25,5.16-9.33,11.15-12.29,18c-2.95,6.83-4.43,14.22-4.43,22.16v56.99c0,0,8.29-1.24,14.4-6.19c6.11-4.94,8.4-11.33,8.4-11.33
		v-39.47c0-4.73,0.89-9.16,2.67-13.31c1.77-4.13,4.21-7.76,7.34-10.89c3.12-3.12,6.75-5.57,10.9-7.35
		c4.13-1.76,5.78-2.53,10.52-2.53c0,0,6.97-2.32,11.62-9.3c2.91-4.36,2.54-13.36,2.54-13.36H360.32z"/>
	
		<linearGradient id="SVGID_3_" gradientUnits="userSpaceOnUse" x1="-1049.1208" y1="-588.6279" x2="-889.7882" y2="-588.6279" gradientTransform="matrix(0 1 -1 0 -421.8477 1066.2091)">
		<stop  offset="0.0123" style="stop-color:#4ECAE0"/>
		<stop  offset="1" style="stop-color:#6EA5E0"/>
	</linearGradient>
	<path class="st2" d="M160.86,166.96c6.8,7.57,17.18,9.46,17.18,9.46V34.85c0,0-0.89-5.8-6.58-11.95
		c-4.95-5.35-15.96-5.81-15.96-5.81v134.89C155.51,151.98,156.37,161.95,160.86,166.96z"/>
	
		<linearGradient id="SVGID_4_" gradientUnits="userSpaceOnUse" x1="-1049.1208" y1="-467.791" x2="-1006.9735" y2="-467.791" gradientTransform="matrix(0 1 -1 0 -421.8477 1066.2091)">
		<stop  offset="0.0123" style="stop-color:#4ECAE0"/>
		<stop  offset="1" style="stop-color:#6EA5E0"/>
	</linearGradient>
	<path class="st3" d="M40.03,49.77c6.8,7.58,17.19,9.46,17.19,9.46V34.85c0,0-0.9-5.8-6.58-11.95c-4.95-5.35-15.96-5.81-15.96-5.81
		v17.7C34.67,34.79,35.53,44.77,40.03,49.77z"/>
	<path class="st4" d="M233.25,152.38c1.13,0.35,2.28,0.63,3.45,0.86C235.49,153.03,234.34,152.73,233.25,152.38z"/>
	<path class="st4" d="M237.81,153.4c0.95,0.15,1.91,0.27,2.88,0.35C239.71,153.65,238.75,153.54,237.81,153.4z"/>
	
		<linearGradient id="SVGID_5_" gradientUnits="userSpaceOnUse" x1="-1004.7388" y1="-659.1034" x2="-889.4796" y2="-659.1034" gradientTransform="matrix(0 1 -1 0 -421.8477 1066.2091)">
		<stop  offset="0.0123" style="stop-color:#4ECAE0"/>
		<stop  offset="1" style="stop-color:#6EA5E0"/>
	</linearGradient>
	<path class="st5" d="M237.81,153.4c-0.37-0.06-0.75-0.09-1.12-0.17c0.08,0.02,0.15,0.05,0.24,0.06
		C237.22,153.34,237.53,153.36,237.81,153.4z"/>
	
		<linearGradient id="SVGID_6_" gradientUnits="userSpaceOnUse" x1="-1002.969" y1="-654.6352" x2="-889.9401" y2="-654.6352" gradientTransform="matrix(0 1 -1 0 -421.8477 1066.2091)">
		<stop  offset="0.0123" style="stop-color:#4ECAE0"/>
		<stop  offset="1" style="stop-color:#6EA5E0"/>
	</linearGradient>
	<path class="st6" d="M232.32,152.04c0.31,0.12,0.6,0.24,0.93,0.34C232.93,152.28,232.64,152.14,232.32,152.04z"/>
	
		<linearGradient id="SVGID_7_" gradientUnits="userSpaceOnUse" x1="-994.968" y1="-703.474" x2="-905.2802" y2="-703.474" gradientTransform="matrix(0 1 -1 0 -421.8477 1066.2091)">
		<stop  offset="0.0123" style="stop-color:#4ECAE0"/>
		<stop  offset="1" style="stop-color:#6EA5E0"/>
	</linearGradient>
	<path class="st7" d="M294.48,113.78c0-0.31,0.05-0.61,0.05-0.92V71.24c0,0-5.44,0.44-10.44,5.28c-5.42,5.27-6.68,10.1-6.68,10.1
		v26.23c0,3.77-1.45,17.71-2.79,21.08c-1.34,3.37-3.2,6.3-5.57,8.79c-2.37,2.5,9.31-4.35,16.57-13.26
		C289.42,124.8,292.42,119.41,294.48,113.78z"/>
	
		<linearGradient id="SVGID_8_" gradientUnits="userSpaceOnUse" x1="-1003.518" y1="-662.6008" x2="-889.7882" y2="-662.6008" gradientTransform="matrix(0 1 -1 0 -421.8477 1066.2091)">
		<stop  offset="0.0123" style="stop-color:#4ECAE0"/>
		<stop  offset="1" style="stop-color:#6EA5E0"/>
	</linearGradient>
	<path class="st8" d="M238.09,153.75c-0.93-0.07-1.83-0.19-2.74-0.35c-0.27-0.04-0.57-0.06-0.84-0.11
		c-0.08-0.01-0.15-0.04-0.22-0.06c-1.11-0.23-2.21-0.5-3.29-0.86c-0.3-0.1-0.59-0.22-0.88-0.34c-0.71-0.26-1.42-0.51-2.11-0.82
		c-3.95-1.78-7.4-4.21-10.38-7.35c-2.97-3.11-5.3-6.8-7-11.01c-1.68-4.22-2.53-8.7-2.53-13.42V81.78c0,0-2.7-8.62-8.98-12.84
		c-7.03-4.71-12.48-6.25-12.48-6.25v56.74c0,7.77,1.41,15.11,4.23,22.04c2.81,6.91,6.67,13,11.58,18.24
		c4.9,5.24,10.64,9.32,17.25,12.28c6.58,2.96,13.57,4.44,20.97,4.44c7.55,0,14.59-1.48,21.09-4.44c6.5-2.96,12.26-7.04,17.24-12.28
		c4.97-5.23,8.87-11.32,11.69-18.24c2.67-6.58,4.03-13.55,4.16-20.88C284.97,147.54,257.34,155.6,238.09,153.75z"/>
</g>
</svg>
